<?xml version="1.0" standalone="no"?>
<!DOCTYPE svg PUBLIC "-//W3C//DTD SVG 20010904//EN"
 "http://www.w3.org/TR/2001/REC-SVG-20010904/DTD/svg10.dtd">
<svg version="1.0" xmlns="http://www.w3.org/2000/svg"
 width="219.000000pt" height="94.000000pt" viewBox="0 0 219.000000 94.000000"
 preserveAspectRatio="xMidYMid meet">

<g transform="translate(0.000000,94.000000) scale(0.100000,-0.100000)"
fill="#000000" stroke="none">
<path d="M1594 853 c-4 -16 -33 -60 -64 -99 -32 -40 -83 -110 -114 -157 -31
-47 -61 -89 -67 -93 -8 -5 -9 23 -4 105 6 98 5 112 -9 117 -24 9 -28 1 -33
-58 -2 -29 -9 -63 -15 -74 -11 -23 -97 -99 -104 -92 -2 3 3 28 12 57 18 63 15
130 -7 144 -18 11 -89 1 -89 -13 0 -5 -17 -25 -37 -44 -34 -31 -38 -39 -38
-85 0 -41 5 -55 28 -79 l27 -28 -23 -22 c-56 -53 -111 -12 -105 80 3 45 0 53
-16 56 -11 2 -27 13 -35 24 -13 16 -23 18 -61 12 -36 -5 -54 -16 -87 -52 -76
-80 -91 -132 -48 -172 14 -13 25 -27 25 -32 0 -11 -77 -10 -84 1 -3 5 -21 12
-40 15 -18 4 -41 15 -51 26 -18 19 -17 21 34 75 66 69 90 123 91 197 0 66 -20
88 -81 88 -37 0 -135 -55 -172 -98 -25 -28 -43 -125 -36 -192 4 -30 10 -90 14
-133 l8 -77 -28 0 c-16 0 -42 -4 -59 -10 -17 -5 -65 -19 -106 -32 -68 -21
-120 -55 -120 -79 0 -5 11 -16 26 -25 41 -27 235 -37 749 -37 545 -1 601 4
755 64 180 70 260 129 260 191 0 31 13 42 92 80 75 35 108 64 108 94 0 19 -17
34 -39 34 -4 0 -23 -22 -44 -50 -73 -98 -98 -89 -88 30 4 47 5 93 3 103 -8 31
-56 20 -114 -26 -63 -50 -103 -77 -118 -77 -5 0 -17 16 -25 36 -11 27 -15 75
-15 185 l0 149 -25 0 c-19 0 -26 -7 -31 -27z m16 -148 c0 -62 9 -126 32 -212
7 -29 16 -43 27 -43 9 0 54 29 99 65 117 93 122 91 101 -50 -8 -51 -17 -78
-28 -84 -32 -17 -189 -40 -340 -51 -84 -6 -155 -9 -157 -7 -2 2 3 20 11 40 8
20 15 47 15 59 0 13 6 32 14 43 7 11 26 42 41 69 42 75 163 236 178 236 4 0 7
-29 7 -65z m-972 -42 c4 -65 -9 -90 -90 -175 -92 -97 -103 -92 -99 47 1 67 6
93 17 100 8 6 38 27 66 48 35 26 60 37 77 35 24 -3 26 -7 29 -55z m521 -2 c21
-13 -3 -112 -36 -152 l-26 -30 -23 40 c-21 34 -23 43 -12 68 10 25 65 82 78
83 3 0 11 -4 19 -9z m-289 -119 c0 -34 -38 -154 -54 -171 -15 -14 -19 -14 -42
-1 -14 8 -33 27 -42 42 -23 39 -7 76 52 116 54 36 86 41 86 14z m435 -71 c-3
-42 -9 -92 -13 -111 l-8 -35 -69 -7 c-39 -3 -138 -8 -222 -10 -120 -2 -148 -1
-130 8 12 7 33 30 47 51 l24 39 49 -13 c52 -13 86 -6 122 27 11 10 34 21 52
25 19 4 47 23 68 46 20 22 40 37 45 34 5 -3 12 0 16 6 5 8 3 9 -7 4 -12 -8
-12 -6 0 8 24 30 33 8 26 -72z m-416 -66 c-13 -25 -29 -51 -37 -58 -8 -6 -1
13 17 44 17 31 32 64 32 75 1 17 2 17 6 2 2 -10 -6 -38 -18 -63z m-365 -44
c23 -25 98 -51 147 -51 21 0 41 -4 44 -10 4 -6 -28 -10 -89 -10 -52 0 -106 -4
-119 -9 -22 -9 -25 -7 -31 21 -11 55 -7 78 12 78 11 0 27 -9 36 -19z m1316
-41 c-20 -38 -134 -112 -220 -144 -71 -26 -228 -56 -293 -56 -58 0 -59 1 -53
24 3 14 22 51 41 83 l35 59 193 17 c249 23 275 26 282 38 12 18 25 -2 15 -21z
m-587 -46 c3 -3 -3 -22 -13 -42 -10 -21 -22 -54 -25 -75 -4 -20 -11 -40 -16
-43 -15 -9 -703 -4 -709 5 -3 5 -3 34 -2 64 l4 55 116 6 c65 4 213 11 330 16
118 4 216 11 219 14 8 8 88 8 96 0z m-843 -110 c0 -46 -3 -55 -15 -50 -8 3
-53 6 -99 7 -74 1 -120 11 -106 22 43 34 169 75 190 62 5 -3 11 -1 15 5 12 19
15 10 15 -46z"/>
</g>
</svg>
