<?xml version="1.0" standalone="no"?>
<!DOCTYPE svg PUBLIC "-//W3C//DTD SVG 20010904//EN"
 "http://www.w3.org/TR/2001/REC-SVG-20010904/DTD/svg10.dtd">
<svg version="1.0" xmlns="http://www.w3.org/2000/svg"
 width="314.000000pt" height="144.000000pt" viewBox="0 0 314.000000 144.000000"
 preserveAspectRatio="xMidYMid meet">

<g transform="translate(0.000000,144.000000) scale(0.100000,-0.100000)"
fill="#000000" stroke="none">
<path d="M2675 1268 c-4 -18 -20 -58 -36 -88 -15 -30 -42 -99 -59 -152 -32
-96 -33 -98 -69 -104 -20 -4 -44 -11 -55 -16 -14 -8 -23 -3 -45 23 -23 27 -30
30 -47 21 -23 -12 -63 -61 -86 -105 l-14 -29 -16 41 c-17 43 -56 63 -86 44
-24 -14 -26 -33 -4 -33 19 0 52 -29 52 -46 0 -18 -69 -83 -109 -104 -22 -11
-53 -20 -69 -20 -25 0 -30 5 -36 31 -4 20 0 41 9 58 51 93 50 90 33 107 -14
14 -18 14 -38 -8 -12 -12 -29 -36 -37 -52 -20 -39 -98 -104 -126 -106 -4 0 -5
17 -2 38 18 122 18 151 0 158 -18 7 -38 -11 -110 -101 -22 -27 -53 -63 -68
-80 -26 -29 -27 -29 -18 -5 5 14 19 44 30 67 12 23 21 46 21 51 0 5 7 23 16
41 35 71 58 231 37 252 -19 19 -31 1 -38 -54 -9 -74 -22 -125 -47 -182 -12
-27 -30 -70 -40 -95 -11 -25 -26 -57 -34 -72 -8 -14 -14 -37 -14 -50 0 -13 -5
-29 -11 -35 -15 -15 -7 -57 13 -61 19 -4 92 68 152 148 39 52 57 72 63 66 1
-1 -1 -26 -6 -55 -5 -30 -6 -62 -4 -72 11 -41 66 -32 126 21 l36 31 15 -35
c32 -76 102 -79 205 -6 30 22 57 38 59 36 1 -2 -19 -58 -45 -124 l-48 -121
-55 -6 c-148 -17 -276 -37 -385 -60 -66 -15 -151 -32 -190 -40 -38 -7 -119
-24 -180 -38 -159 -36 -194 -41 -175 -25 58 48 93 150 84 242 -7 67 10 181 28
192 12 7 -10 34 -28 34 -8 0 -14 -7 -14 -15 0 -23 -12 -18 -49 21 -27 27 -41
34 -65 32 -43 -4 -41 -20 7 -43 34 -16 44 -27 51 -58 12 -49 3 -65 -55 -94
-76 -39 -159 -25 -159 27 0 15 8 34 18 42 21 19 77 38 108 38 31 0 32 28 1 35
-30 8 -105 -1 -121 -14 -9 -7 -24 2 -53 33 -47 50 -99 69 -118 42 -7 -9 -17
-16 -23 -16 -15 0 -94 -68 -114 -99 -10 -14 -18 -45 -18 -68 0 -37 4 -44 38
-65 47 -29 144 -32 185 -5 27 18 67 23 67 9 0 -5 18 -15 39 -22 52 -17 144 -6
182 20 l28 20 7 -45 c10 -70 -1 -119 -37 -171 -30 -41 -96 -84 -129 -84 -16 0
-34 44 -34 84 -1 44 -20 59 -30 24 -9 -37 -7 -106 5 -113 5 -4 8 -12 7 -17 -5
-15 -406 -97 -555 -114 -59 -6 -63 -5 -63 14 0 44 -122 25 -133 -20 -6 -20 11
-37 44 -44 34 -7 187 -6 199 1 5 3 19 1 30 -5 16 -8 20 -8 18 2 -2 8 9 14 27
16 17 2 80 14 141 27 61 14 125 25 141 25 16 0 33 4 39 9 5 6 23 12 39 15 152
25 220 38 226 41 3 3 21 6 40 9 19 2 45 7 59 10 14 3 41 8 60 11 19 2 87 16
150 29 63 14 149 33 190 42 41 9 100 23 130 30 30 8 89 18 130 24 41 5 104 14
140 20 100 15 120 13 120 -9 0 -21 25 -51 42 -51 6 0 29 19 50 43 l40 42 155
2 c85 1 163 5 172 8 38 15 -25 27 -169 32 -169 7 -161 2 -137 90 14 49 41 71
162 134 53 27 95 58 123 90 36 41 48 48 68 43 17 -4 36 1 62 19 32 22 84 47
98 47 2 0 1 -30 -2 -67 -4 -38 -2 -85 4 -105 8 -29 7 -41 -5 -58 -20 -29 -8
-38 25 -19 27 15 27 15 27 135 0 109 2 122 23 148 26 33 29 88 7 106 -13 11
-21 9 -45 -8 -16 -12 -34 -22 -40 -22 -6 0 -32 -12 -56 -26 -48 -28 -61 -27
-46 3 23 43 36 110 36 196 1 78 -2 92 -16 95 -11 2 -18 -6 -23 -30z m-9 -180
c-9 -46 -49 -144 -53 -131 -3 9 10 57 42 151 9 26 17 11 11 -20z m-286 -236
c0 -41 -31 -111 -55 -125 -19 -10 -19 -2 -1 56 7 25 11 48 9 51 -8 7 25 56 37
56 6 0 10 -17 10 -38z m140 28 c0 -25 -30 -80 -44 -80 -16 0 -33 58 -20 70 8
7 32 15 57 19 4 0 7 -4 7 -9z m-1649 -145 c10 -19 15 -42 12 -61 -4 -28 -11
-34 -55 -48 -63 -20 -107 -20 -136 0 -30 21 -27 53 9 92 60 66 138 74 170 17z
m1559 35 c0 -5 -4 -10 -10 -10 -5 0 -10 5 -10 10 0 6 5 10 10 10 6 0 10 -4 10
-10z m-213 -205 c-7 -32 -19 -61 -25 -63 -7 -2 -10 2 -8 10 3 7 12 37 21 66
22 69 29 61 12 -13z"/>
<path d="M554 1125 c-16 -14 -32 -25 -35 -25 -6 0 -69 -139 -97 -215 -30 -80
-48 -325 -28 -382 12 -37 52 -31 65 10 25 80 53 199 64 272 l12 80 48 7 c86
12 147 74 155 157 4 43 1 52 -28 84 -28 33 -37 37 -79 37 -37 0 -55 -6 -77
-25z m120 -50 c9 -13 16 -33 16 -44 0 -35 -34 -81 -76 -101 -64 -31 -70 -27
-65 43 2 19 -2 27 -13 27 -21 0 -20 9 2 43 41 62 106 77 136 32z m-191 -197
c-6 -65 -41 -249 -49 -257 -9 -8 2 122 15 189 11 55 30 120 35 120 2 0 1 -24
-1 -52z"/>
<path d="M1263 1119 c-6 -6 -9 -19 -6 -28 16 -51 48 -101 65 -101 12 0 10 22
-7 53 -8 15 -12 33 -9 40 7 20 -29 50 -43 36z"/>
<path d="M1423 877 c-49 -27 -117 -103 -140 -156 -21 -48 -23 -61 -14 -92 16
-54 30 -62 80 -44 23 8 55 24 71 35 15 11 40 20 54 20 18 0 29 7 35 23 5 12
25 42 45 66 40 48 42 54 22 70 -12 10 -29 -3 -91 -64 -96 -96 -165 -130 -165
-82 1 38 53 123 99 162 38 31 50 36 77 30 40 -7 52 8 22 29 -27 19 -65 20 -95
3z"/>
<path d="M2830 416 c0 -7 7 -19 15 -26 12 -10 16 -9 21 3 3 9 3 21 -1 27 -9
15 -35 12 -35 -4z"/>
</g>
</svg>
